<?xml version="1.0" encoding="utf-8"?>
<svg x="0px" y="0px" viewBox="9 3 82 46" xmlns="http://www.w3.org/2000/svg">

  <g stroke="none" stroke-width="1" fill="none" fill-rule="evenodd">
    <g fill="#000000">
      <path d="M75,37 L51.05,37 C52.923,33.763 54,30.009 54,26 C54,21.991 52.923,18.237 51.05,15 L75,15 C81.065,15 86,19.935 86,26 C86,32.065 81.065,37 75,37 M32,44 C22.075,44 14,35.925 14,26 C14,16.075 22.075,8 32,8 C41.925,8 50,16.075 50,26 C50,35.925 41.925,44 32,44 M75,11 L48.087,11 C44.071,6.695 38.352,4 32,4 C19.85,4 10,13.85 10,26 C10,38.15 19.85,48 32,48 C38.352,48 44.071,45.305 48.087,41 L75,41 C83.282,41 90,34.284 90,26 C90,17.714 83.284,11 75,11"/>
      <path d="M32,17 C27.029,17 23,21.029 23,26 C23,30.971 27.029,35 32,35 C36.971,35 41,30.971 41,26 C41,21.029 36.971,17 32,17 M32,21 C34.757,21 37,23.243 37,26 C37,28.757 34.757,31 32,31 C29.243,31 27,28.757 27,26 C27,23.243 29.243,21 32,21"/>
    </g>
  </g>
</svg>
