<?xml version="1.0" encoding="utf-8"?>
<svg x="0px" y="0px" viewBox="6 7 82 46" xmlns="http://www.w3.org/2000/svg">
  <title>Artboard 18 Copy 7</title>
  <desc>Created with Sketch.</desc>
  <g stroke="none" stroke-width="1" fill="none" fill-rule="evenodd" transform="matrix(1, 0, 0, 1, -3.139718, -44.197563)">
    <g fill="#000000">
      <path d="M50,74 C50,64.075 58.075,56 68,56 C77.925,56 86,64.075 86,74 C86,83.926 77.925,92 68,92 C58.075,92 50,83.926 50,74 M10,74 C10,82.284 16.718,89 25,89 L51.913,89 C55.929,93.305 61.648,96 68,96 C80.15,96 90,86.15 90,74 C90,61.85 80.15,52 68,52 C61.648,52 55.929,54.695 51.913,59 L25,59 C16.716,59 10,65.714 10,74"/>
      <path d="M66,66.9951 C66,65.8931 66.888,65.0001 68,65.0001 C69.104,65.0001 70,65.8921 70,66.9951 L70,81.0051 C70,82.1071 69.112,83.0001 68,83.0001 C66.896,83.0001 66,82.1071 66,81.0051 L66,66.9951 Z"/>
    </g>
  </g>
</svg>