<?xml version="1.0" encoding="utf-8"?>
<svg x="0px" y="0px" viewBox="9 9 72 72" xmlns="http://www.w3.org/2000/svg">
  <path d="M45,80.5C25.425,80.5,9.5,64.575,9.5,45C9.5,25.425,25.425,9.5,45,9.5c19.575,0,35.5,15.925,35.5,35.5  C80.5,64.575,64.575,80.5,45,80.5z M45,10.5c-19.023,0-34.5,15.477-34.5,34.5S25.977,79.5,45,79.5S79.5,64.023,79.5,45  S64.023,10.5,45,10.5z"/>
  <path d="M60,44.5c-0.275,0-0.5,0.224-0.5,0.5c0,7.995-6.505,14.5-14.5,14.5S30.5,52.995,30.5,45S37.005,30.5,45,30.5  c3.223,0,6.337,1.084,8.869,3.046l-4.336,0.39l0.091,0.997l5.979-0.539l-0.972-5.927l-0.987,0.161l0.654,3.985  C51.626,30.605,48.367,29.5,45,29.5c-8.547,0-15.5,6.953-15.5,15.5S36.453,60.5,45,60.5S60.5,53.547,60.5,45  C60.5,44.724,60.275,44.5,60,44.5z"/>
</svg>