<?xml version="1.0" encoding="utf-8"?>
<svg style="enable-background:new 0 0 96 96;" x="0px" y="0px" viewBox="13 16 66 65" xmlns="http://www.w3.org/2000/svg">
  <g transform="matrix(0.623575, 0, 0, 0.623575, 18.75034, 18.501024)">
    <g>
      <g>
        <path d="M26.3,75.6c-0.5,0-1-0.2-1.4-0.5c-0.6-0.5-0.8-1.4-0.5-2.1l8.3-25l-8.3-25c-0.3-0.8,0-1.6,0.5-2.1     c0.6-0.5,1.4-0.7,2.2-0.4l59.7,25.6c0.7,0.3,1.2,1,1.2,1.8s-0.5,1.5-1.2,1.8L27.1,75.5C26.9,75.6,26.6,75.6,26.3,75.6z M29.6,26     l7.1,21.4c0.1,0.4,0.1,0.9,0,1.3L29.6,70l51.3-22L29.6,26z"/>
      </g>
      <g>
        <path d="M21,50H5c-1.1,0-2-0.9-2-2s0.9-2,2-2h16c1.1,0,2,0.9,2,2S22.1,50,21,50z"/>
      </g>
      <g>
        <path d="M21,33H5c-1.1,0-2-0.9-2-2s0.9-2,2-2h16c1.1,0,2,0.9,2,2S22.1,33,21,33z"/>
      </g>
      <g>
        <path d="M21,68H5c-1.1,0-2-0.9-2-2s0.9-2,2-2h16c1.1,0,2,0.9,2,2S22.1,68,21,68z"/>
      </g>
    </g>
  </g>
  <path d="M 45.912 80.662 C 28.062 80.662 13.542 66.141 13.542 48.291 C 13.542 30.441 28.062 15.921 45.912 15.921 C 63.762 15.921 78.283 30.441 78.283 48.291 C 78.283 66.141 63.762 80.662 45.912 80.662 Z M 45.912 16.833 C 28.566 16.833 14.454 30.945 14.454 48.291 C 14.454 65.638 28.566 79.749 45.912 79.749 C 63.258 79.749 77.37 65.638 77.37 48.291 C 77.37 30.945 63.258 16.833 45.912 16.833 Z"/>
</svg>